<svg version="1.0" xmlns="http://www.w3.org/2000/svg" width="32" height="32" viewBox="0 0 32 32">
  <g transform="translate(0,32) scale(0.1,-0.1)" fill="#000000" stroke="none">
    <path d="M40 280 c-11 -11 -20 -29 -20 -40 l0 -200 c0 -11 9 -29 20 -40 l11 -11 h200 c11 0 29 9 40 20 l11 11 v200 c0 11 -9 29 -20 40 l-11 11 h-200 c-11 0 -29 -9 -40 -20z m180 -40 c11 -11 20 -29 20 -40 v-120 c0 -11 -9 -29 -20 -40 l-11 -11 h-120 c-11 0 -29 9 -40 20 l-11 11 v120 c0 11 9 29 20 40 l11 11 h120 c11 0 29 -9 40 -20z"/>
    <path d="M80 200 c0 -5 5 -10 10 -10 h40 c5 0 10 5 10 10 s-5 10 -10 10 h-40 c-5 0 -10 -5 -10 -10z"/>
    <path d="M80 160 c0 -5 5 -10 10 -10 h60 c5 0 10 5 10 10 s-5 10 -10 10 h-60 c-5 0 -10 -5 -10 -10z"/>
    <path d="M80 120 c0 -5 5 -10 10 -10 h30 c5 0 10 5 10 10 s-5 10 -10 10 h-30 c-5 0 -10 -5 -10 -10z"/>
  </g>
</svg>